<?xml version="1.0" encoding="UTF-8" standalone="no"?>
<!-- Created with Inkscape (http://www.inkscape.org/) -->

<svg
   width="44.327759mm"
   height="48.015343mm"
   viewBox="0 0 44.327759 48.015343"
   version="1.1"
   id="svg1"
   xml:space="preserve"
   xmlns="http://www.w3.org/2000/svg"
   xmlns:svg="http://www.w3.org/2000/svg"><defs
     id="defs1">
     <title>RUKE SU VAM KRVAVE</title>
     <clipPath
       clipPathUnits="userSpaceOnUse"
       id="clipPath5"><path
         d="M 0,181.417 H 181.417 V 0 H 0 Z"
         transform="translate(-85.196005,-141.2133)"
         id="path5" /></clipPath><clipPath
       clipPathUnits="userSpaceOnUse"
       id="clipPath7"><path
         d="M 0,181.417 H 181.417 V 0 H 0 Z"
         transform="translate(-110.2047,-97.8632)"
         id="path7" /></clipPath><clipPath
       clipPathUnits="userSpaceOnUse"
       id="clipPath9"><path
         d="M 0,181.417 H 181.417 V 0 H 0 Z"
         transform="translate(-60.297401,-138.4206)"
         id="path9" /></clipPath><clipPath
       clipPathUnits="userSpaceOnUse"
       id="clipPath11"><path
         d="M 0,181.417 H 181.417 V 0 H 0 Z"
         transform="translate(-147.8628,-121.5678)"
         id="path11" /></clipPath><clipPath
       clipPathUnits="userSpaceOnUse"
       id="clipPath13"><path
         d="M 0,181.417 H 181.417 V 0 H 0 Z"
         transform="translate(-130.33281,-65.018502)"
         id="path13" /></clipPath></defs><g
     id="layer-MC0"
     transform="matrix(0.26458332,0,0,0.26458334,136.5775,-85.053466)"><g
       id="g2"
       transform="translate(-538.65221,298.81434)"><path
         id="path4"
         d="M 0,0 C 0.064,-0.141 1.881,-2.177 2.053,-2.32 2.337,-2.556 2.677,-2.664 3.035,-2.716 3.141,-3.197 2.602,-3.097 2.433,-3.244 2.378,-3.293 1.627,-4.247 1.539,-4.378 1.348,-4.664 1.08,-6.174 1.157,-6.443 1.214,-6.644 1.482,-6.824 1.541,-7.044 1.735,-7.775 1.33,-7.934 2.212,-8.493 L 1.579,-9.911 c 0.169,-0.477 0.501,-1.323 0.468,-1.803 -0.019,-0.277 -0.388,-0.472 -0.3,-0.779 0.078,-0.275 0.668,-0.276 0.642,-0.667 l -0.795,-0.516 c 0.288,-1.06 0.019,-1.799 -0.255,-2.811 -0.057,-0.208 -0.308,-0.37 -0.335,-0.557 -0.15,-1.064 0.411,-1.704 0.805,-2.527 0.119,-0.248 0.049,-0.551 0.183,-0.796 0.078,-0.143 0.425,-0.139 0.491,-0.475 0.053,-0.273 -0.161,-0.721 -0.094,-0.818 0.076,-0.112 1.241,-0.083 1.132,-0.57 -0.03,-0.134 -1.683,-1.685 -1.955,-1.927 -0.285,-0.252 -0.696,-0.289 -0.964,-0.663 -0.232,-0.326 -0.518,-1.548 -0.481,-1.933 0.05,-0.506 0.688,-1.002 0.922,-1.521 0.499,-1.105 0.717,-3.008 0.878,-4.144 0.144,-1.025 0.526,-1.001 0.872,-1.719 0.602,-1.251 0.977,-3.475 1.456,-4.86 0.28,-0.809 0.664,-1.274 1.169,-1.946 0.416,-0.1 3.631,-0.005 3.901,0.197 0.155,0.116 0.121,0.719 0.35,0.867 0.301,0.194 0.897,-0.097 1.142,0.32 l -0.325,0.885 c 0.782,0.216 1.43,0.009 1.801,0.888 0.18,0.425 -0.063,0.652 0.01,1.096 0.092,0.565 0.72,1.509 0.779,2.002 0.2,1.674 -0.283,3.565 0.205,5.285 0.094,0.329 0.521,0.657 0.558,1.036 0.067,0.688 -0.399,1.617 -0.417,2.077 -0.022,0.554 0.242,1.211 0.131,1.942 -0.143,0.937 -0.724,1.568 -1.481,1.707 -0.047,0.089 -0.099,0.239 -0.154,0.498 -0.306,1.426 0.203,1.019 0.56,2.598 0.357,1.579 0.815,1.222 0.866,2.801 0.051,1.579 -1.885,2.496 -1.885,2.496 0,0 -0.458,0.917 -0.407,2.496 0.051,1.579 0.305,2.649 0.305,2.649 0,0 -0.356,0.611 -0.967,1.936 l -0.227,0.084 c 0.002,0.079 0.005,0.156 0.014,0.225 0.057,0.441 0.372,1.066 0.541,1.641 0.116,0.397 0.164,0.77 0.01,1.043 -0.158,0.281 -1.016,0.403 -0.888,0.728 0.091,0.233 0.685,0.483 0.897,0.723 0.764,0.865 0.524,2.272 0.759,3.291 0.235,1.017 0.887,2.337 1.058,3.315 0.428,2.448 0.148,6.329 -0.397,8.76 -0.285,1.273 -0.733,2.372 -1.205,3.571 -0.106,0.069 -0.474,0.058 -0.596,-0.013 C 10.271,16.152 10.225,15.784 10.004,15.662 9.183,15.209 7.869,17.199 7.009,17.218 6.808,17.223 6.162,17.017 5.543,16.787 5.434,16.852 5.317,16.927 5.19,17.017 3.636,18.128 4.154,17.165 3.858,17.091 3.562,17.017 3.044,16.129 2.378,15.167 2.184,14.887 2.009,14.666 1.857,14.49 1.709,14.348 1.487,14.181 1.358,13.991 1.292,13.937 1.256,13.914 1.256,13.914 c 0,0 -0.729,-0.449 -1.099,-1.189 -0.37,-0.74 -0.074,-1.036 0,-1.491 0,-10e-4 0,-10e-4 0,-10e-4 C -0.772,10.901 0.138,10.167 0.048,9.743 -0.017,9.441 -0.538,9.079 -0.723,8.738 -1.416,7.463 -0.935,4.069 -0.648,2.591 -0.532,1.991 -0.22,0.484 0,0"
         style="fill:#c4161d;fill-opacity:1;fill-rule:nonzero;stroke:none"
         transform="matrix(1.3333333,0,0,-1.3333333,106.03563,46.045893)"
         clip-path="url(#clipPath5)" /><path
         id="path6"
         d="m 0,0 c 0.815,0.103 1.462,-0.225 2.365,-0.051 0.662,-0.092 2.879,-1.416 3.277,-1.417 0.349,0 0.714,0.409 1.049,0.562 0.232,0.107 0.577,0.023 0.811,0.161 0.179,0.106 0.23,0.454 0.396,0.578 0.252,0.187 0.643,0.077 0.76,0.244 0.116,0.165 0.171,0.783 0.323,1.101 0.637,1.339 1.427,2.147 1.885,3.784 0.315,1.127 0.518,1.47 0.84,2.399 0.106,0.305 0.381,1.975 0.338,2.248 -0.108,0.688 -1.301,0.95 -1.14,1.467 l 1.84,1.254 c -0.142,0.871 0.278,1.815 0.282,2.634 0.014,2.555 0.252,4.397 0.475,6.796 0.079,0.849 0.383,2.239 0.516,3.209 0.081,0.591 0.784,1.775 0.771,2.48 -0.003,0.196 -0.074,0.306 -0.259,0.372 -0.578,0.206 -1.027,-0.829 -1.226,-1.325 -0.303,-0.755 -0.589,-1.942 -0.801,-2.761 -0.246,-0.951 -0.1,-2.009 -0.784,-2.783 -0.326,-0.238 -0.941,1.583 -0.779,1.837 0.051,0.081 0.357,0.072 0.421,0.286 0.132,0.436 0.053,1.428 0.321,2.128 0.581,1.521 1.962,1.953 0.381,3.856 1.314,0.67 1.016,1.476 1.353,2.671 0.222,0.79 0.402,1.52 0.608,2.307 0.082,0.31 0.528,0.67 0.583,1.05 0.08,0.556 -0.606,0.805 -0.115,1.723 0.123,0.231 0.416,0.371 0.535,0.597 0.589,1.12 0.193,2.213 0.304,3.29 0.255,2.464 0.867,4.311 0.206,6.916 -0.439,1.726 -1.845,3.546 -3.732,3.719 -1.553,0.143 -2.62,-0.33 -3.931,-1.095 C 6.834,49.631 4.514,44.673 4.178,43.396 3.851,42.153 3.708,38.967 3.782,37.641 3.896,35.587 4.922,33.337 4.098,31.329 L 4.925,30.35 C 4.922,29.933 4.26,29.921 4.134,29.51 3.913,28.788 4.315,27.834 4.237,27.306 4.182,26.937 3.622,26.515 3.622,26.463 3.622,26.358 4.196,26.14 4.082,25.692 4.032,25.497 3.754,25.288 3.66,24.963 3.389,24.026 3.504,22.834 3.258,21.964 3.137,21.535 2.727,21.174 2.561,20.718 2.303,20.01 2.303,18.888 2.125,18.238 1.796,17.03 0.578,15.799 1.64,14.637 L 1.199,14.013 1.836,13.101 C 0.709,13.302 0.045,12.806 -0.079,11.681 -0.124,11.263 0.075,10.916 0.046,10.451 -0.035,9.203 -0.662,7.723 -0.693,6.19 -0.704,5.697 -0.427,4.853 -0.475,4.453 -0.511,4.155 -0.863,3.946 -0.893,3.758 -0.91,3.651 -0.607,3.233 -0.577,2.823 -0.529,2.138 -0.818,1.695 -0.894,1.066 Z"
         style="fill:#c4161d;fill-opacity:1;fill-rule:nonzero;stroke:none"
         transform="matrix(1.3333333,0,0,-1.3333333,139.38056,103.84603)"
         clip-path="url(#clipPath7)" /><path
         id="path8"
         d="m 0,0 c 0.05,-2.665 -0.127,-4.544 0.411,-7.279 0.065,-0.332 0.329,-1.429 0.463,-1.643 0.056,-0.089 1.52,-1.27 1.628,-1.302 0.364,-0.109 1.354,0.35 1.459,-0.147 0.108,-0.506 -0.916,-0.59 -1.096,-0.764 -0.262,-0.254 -0.287,-2.686 -0.166,-3.089 0.088,-0.293 0.499,-0.422 0.583,-0.712 0.14,-0.479 0.069,-1.259 0.236,-1.87 0.094,-0.341 0.408,-0.568 0.446,-0.863 0.116,-0.883 -0.407,-3.194 -0.491,-4.201 -0.043,-0.518 0.168,-0.976 0.149,-1.304 -0.017,-0.291 -0.38,-0.468 -0.315,-0.952 0.064,-0.479 0.735,-0.72 0.893,-1.069 0.13,-0.288 0.02,-0.624 0.245,-0.887 0.573,-0.668 2.142,0.131 2.431,-0.487 l -1.534,-1.215 c -0.563,-1.082 -0.703,-2.401 -0.528,-3.599 0.093,-0.632 0.455,-1.053 0.57,-1.536 0.608,-2.561 0.82,-4.362 2.237,-6.671 0.252,-0.412 0.847,-0.639 0.954,-0.828 0.095,-0.169 0.397,-0.939 0.536,-1.252 0.079,-0.18 -0.026,-0.478 0.071,-0.653 0.027,-0.049 0.752,-0.438 0.888,-0.486 1.322,-0.468 1.009,0.136 1.843,0.68 0.344,0.224 0.885,0.295 1.227,0.635 0.245,0.244 0.391,0.837 0.705,0.996 0.508,0.256 1.699,0.346 2.194,0.883 0.321,0.349 0.289,1.227 0.403,1.303 0.23,0.153 1.445,-0.593 1.292,1.377 -0.107,1.381 -1.134,2.004 -0.959,3.711 0.038,0.367 0.315,0.878 0.297,1.162 -0.021,0.327 -0.376,0.425 -0.451,0.674 -0.094,0.311 0.092,0.617 0.048,0.879 -0.183,1.111 -0.489,2.015 -0.999,3.011 -0.39,0.763 -0.22,0.484 -0.407,1.382 -0.123,0.591 -0.622,0.952 -0.612,1.575 l -1.618,-0.324 c 0.332,0.865 0.472,1.306 0.323,2.268 l -2.752,-0.486 c -0.483,0.507 1.864,1.378 2.255,1.47 -0.323,0.795 0.355,1.622 0.144,2.301 -0.076,0.243 -0.422,0.359 -0.464,0.69 -0.04,0.326 0.212,0.674 0.146,0.933 -0.048,0.186 -0.343,0.317 -0.422,0.558 -0.235,0.722 -0.51,1.687 0.118,2.228 l -0.968,0.406 0.323,0.807 -1.132,0.002 c 0.433,0.985 0.295,2.072 0.972,2.992 -0.158,0.065 -0.315,0.146 -0.472,0.233 -0.062,0.171 -0.15,0.419 -0.273,0.719 -0.2,0.486 -0.071,0.567 -0.152,0.864 -0.081,0.297 -0.054,1.215 -0.027,1.647 0.027,0.432 0.216,1.403 0.324,2.213 0.108,0.81 0.135,1.755 0.108,2.457 -0.027,0.702 -0.486,0.837 -0.486,0.837 l -0.324,0.54 -0.092,0.988 c 0.825,0.653 0.655,1.481 0.582,2.543 L 10.652,2.308 c 0,0.115 0,0.235 0,0.366 0,0.116 -0.018,0.311 -0.049,0.558 -10e-4,0.026 0,0.049 -0.004,0.077 L 10.592,3.313 C 10.528,3.789 10.418,4.438 10.284,5.111 L 9.953,7.205 C 9.891,7.209 9.841,7.204 9.795,7.196 9.681,7.59 9.568,7.91 9.465,8.1 8.976,8.995 9.276,8.37 8.888,8.802 8.5,9.234 8.79,8.991 8.851,9.612 8.912,10.233 8.778,10.118 8.547,10.557 8.308,11.008 7.977,11.354 7.69,11.596 7.662,11.652 7.633,11.707 7.601,11.759 7.155,12.486 6.27,12.783 4.734,12.346 1.632,11.463 -0.173,7.054 -0.303,4.103 -0.33,3.473 -0.058,2.727 -0.091,2.272 -0.114,1.976 -0.379,1.762 -0.392,1.462 -0.412,1.035 -0.008,0.411 0,0"
         style="fill:#c4161d;fill-opacity:1;fill-rule:nonzero;stroke:none"
         transform="matrix(1.3333333,0,0,-1.3333333,72.837493,49.769493)"
         clip-path="url(#clipPath9)" /><path
         id="path10"
         d="M 0,0 C -0.016,0.562 0.311,1.548 0.288,2.099 0.277,2.378 -0.468,4.547 -0.645,4.895 -0.937,5.468 -1.248,5.845 -1.598,6.074 -1.599,6.076 -1.599,6.077 -1.6,6.078 -1.822,6.615 -1.748,6.763 -2.192,6.985 -2.636,7.207 -2.868,7.672 -3.894,7.669 -4.205,7.668 -4.436,7.666 -4.628,7.647 c -0.113,0.019 -0.214,0.027 -0.293,0.019 -4.141,-0.395 -7.397,-5.523 -8.276,-9.229 -0.332,-1.396 -0.328,-3.303 -0.264,-4.726 0.032,-0.715 0.837,-2.025 0.777,-2.415 -0.121,-0.786 -1.075,-0.903 -1.284,-1.201 -0.621,-0.881 -0.647,-2.453 -1.003,-3.328 -0.173,-0.424 -0.708,-0.871 -0.855,-1.425 -0.199,-0.745 0.055,-1.67 -0.562,-2.493 l 0.811,-1.712 c -1.279,0.089 -2.28,-0.76 -1.853,-2.104 l -1.547,-1.382 c -0.087,-0.398 0.601,-0.364 0.736,-0.557 0.246,-0.355 0.019,-1.603 -0.293,-1.908 -0.196,-0.189 -0.749,-0.245 -0.928,-0.611 l 0.649,-0.165 c -0.087,-0.578 -0.802,-0.74 -0.807,-1.304 -0.004,-0.529 0.342,-0.651 0.405,-0.959 0.054,-0.257 -0.273,-0.694 0.237,-0.976 l 0.003,-0.24 -0.487,-0.079 c 0.464,-0.337 0.437,-0.98 0.732,-1.375 0.547,-0.741 1.535,-0.525 2.172,-0.906 0.515,-0.308 0.732,-1.381 1.626,-0.962 0.052,0.024 0.845,0.693 0.883,0.743 0.57,0.767 -0.151,1.053 -0.174,1.364 -0.032,0.438 0.809,0.969 0.762,1.45 l -0.656,0.978 c 0.239,0.463 0.657,-0.047 0.973,0.151 0.17,0.108 0.251,0.541 0.413,0.732 0.891,1.059 0.802,0.52 1.08,1.995 0.046,0.245 0.248,0.525 0.253,0.716 0.007,0.251 -0.792,1.256 -0.308,1.889 0.229,0.296 0.781,0.104 0.995,0.207 0.189,0.091 0.295,0.373 0.487,0.462 0.788,0.366 0.46,0.086 1.181,0.682 0.136,0.112 0.363,0.05 0.578,0.309 0.072,0.086 0.564,1.077 0.596,1.2 0.188,0.703 0.229,1.463 0.567,2.159 0.801,1.641 2.44,2.9 1.931,4.968 0.481,-0.048 1.304,0.047 1.628,0.441 0.366,0.443 0.366,1.234 0.565,1.658 0.339,0.719 1.259,1.646 1.722,2.814 0.576,1.451 1.778,4.911 1.756,6.347 C 0.292,-0.698 0.011,-0.374 0,0"
         style="fill:#c4161d;fill-opacity:1;fill-rule:nonzero;stroke:none"
         transform="matrix(1.3333333,0,0,-1.3333333,189.59136,72.239893)"
         clip-path="url(#clipPath11)" /><path
         id="path12"
         d="m 0,0 c -0.09,0.569 -0.12,0.389 -0.329,0.779 -0.21,0.389 -0.15,0.299 -0.27,0.779 -0.12,0.479 0.12,0.179 0,0.509 -0.085,0.232 -0.153,0.552 -0.186,0.784 0.007,0.083 -0.003,0.159 -0.021,0.229 0,0.002 0,0.004 0,0.006 0,0 -0.001,0.002 -0.003,0.006 -0.079,0.289 -0.314,0.478 -0.286,0.627 0.026,0.146 0.293,0.303 0.301,0.522 0.013,0.322 -0.596,0.526 -0.495,0.955 0.307,1.031 1.205,2.493 1.391,3.486 0.147,0.79 0.269,2.669 0.236,3.497 -0.021,0.523 -0.411,0.813 -0.443,1.148 -0.023,0.245 0.221,0.687 0.102,0.856 -0.041,0.053 -0.452,0.1 -0.629,0.262 -0.291,0.264 -0.312,0.802 -0.824,0.999 -0.093,0.545 0.456,0.982 0.497,1.445 0.045,0.514 -0.317,0.698 -0.343,1.119 -0.018,0.287 0.469,0.284 0.482,0.668 0.023,0.607 -0.594,0.243 -0.869,0.252 -1.28,0.042 -0.551,0.018 -1.39,-0.422 -0.781,-0.412 -1.351,-0.355 -2.148,0.098 -0.23,0.132 -0.257,0.423 -0.466,0.511 -0.81,0.333 -1.75,-0.151 -1.28,1.47 l -0.139,0.174 c -0.501,0.34 -1.797,0.239 -1.947,0.314 -0.245,0.12 -0.327,0.644 -0.595,0.724 -0.296,0.091 -0.644,-0.212 -0.863,-0.078 -0.138,0.086 -0.215,0.431 -0.402,0.588 -0.286,0.243 -0.759,0.058 -0.735,0.802 -0.811,-0.463 -0.821,0.406 -1.087,0.484 -0.295,0.088 -1.786,0.191 -1.963,0.347 0.088,1.866 -1.956,2.684 -3.531,2.998 -1.27,0.253 -2.747,0.528 -4.033,1.02 -0.75,0.287 -2.625,2.174 -3.066,2.222 -0.164,0.018 -0.552,-0.231 -0.831,-0.26 -1.535,-0.157 -1.325,0.941 -2.086,0.98 -0.502,0.026 -1.016,-0.31 -1.461,-0.498 l -0.402,0.802 -0.568,-0.805 c -0.477,0.267 -0.028,0.687 -0.106,1.017 -0.153,0.645 -0.761,0.24 -1.148,0.303 -0.941,0.154 -1.973,0.24 -2.925,0.107 -0.412,-0.058 -0.57,-0.552 -1.158,-0.63 -1.179,-0.155 -1.971,0.803 -3.27,0.808 -0.643,0.002 -0.987,-0.55 -1.299,-0.597 -0.221,-0.034 -1.782,0.309 -2.236,0.281 -1.376,-0.082 -2.356,-0.714 -3.446,-1.091 -0.979,-0.34 -2.386,-0.413 -3.331,-1.163 -0.281,-0.225 -0.21,-0.817 -0.673,-0.821 l -1.052,0.333 c -0.189,0.211 0.684,1.751 -0.5,1.382 -0.765,-0.238 -0.761,-1.207 -1.077,-1.406 -0.24,-0.152 -0.633,0.003 -0.71,-0.062 -0.145,-0.121 -0.059,-0.409 -0.273,-0.57 -0.535,-0.405 -1.469,-0.456 -2.015,-0.696 -1.056,-0.462 -3.027,-1.605 -3.444,-2.713 -0.121,-0.326 -0.05,-0.687 -0.163,-0.969 -0.395,-0.976 -0.894,-1.002 -0.721,-2.331 0.06,-0.448 0.337,-0.792 0.319,-1.303 -0.023,-0.677 -0.465,-1.549 -0.5,-2.427 -0.005,-0.123 -0.005,-0.241 -0.002,-0.358 v -4.261 l -0.402,-0.757 -0.108,-0.918 c 0,0 0.486,-0.215 0.379,-0.755 -0.033,-0.157 -0.028,-0.201 -0.021,-0.21 -0.021,-0.007 -0.115,-0.089 -0.465,-0.655 -0.703,-1.133 -1.62,-0.81 -0.919,-1.943 0.702,-1.134 1.134,-1.188 1.674,-1.889 0.541,-0.703 1.35,-0.162 0.541,-0.703 -0.81,-0.539 -1.729,-0.917 -1.729,-0.917 0,0 -0.594,-1.21 -0.215,-1.684 0.377,-0.476 0.972,-0.854 0.755,-1.34 -0.216,-0.486 0.055,-0.377 -0.917,-0.648 -0.972,-0.27 -1.404,0.648 -1.351,-0.756 0.055,-1.403 0.379,-2.212 0.162,-2.645 -0.136,-0.274 0.232,0.216 0.256,0.238 -0.013,-0.024 -0.133,-0.193 -0.471,-0.67 -0.164,-0.232 -0.3,-0.423 -0.417,-0.587 -0.194,-0.092 -0.424,-0.478 -0.628,-0.889 -0.12,-0.241 -0.23,-0.492 -0.319,-0.698 -0.091,-0.206 -0.159,-0.364 -0.193,-0.426 -0.235,-0.415 -0.863,-0.685 -0.761,-1.281 0.057,-0.327 0.395,-0.408 0.183,-0.88 -0.18,-0.397 -0.53,-0.419 -0.7,-0.654 -0.234,-0.319 -0.335,-0.914 -0.531,-1.254 -0.249,0.041 -0.512,0.085 -0.792,0.136 -3.959,0.72 -1.439,0.504 -4.319,0.216 -2.879,-0.288 -0.288,0.648 -0.648,3.096 -0.36,2.447 -0.36,0.936 -0.185,2.231 0.175,1.296 -0.247,1.728 -1.219,2.88 -0.973,1.152 -2.411,0.432 -3.491,1.368 -1.08,0.935 -0.072,1.223 -1.08,2.535 -0.556,0.724 -0.863,1.006 -1.198,1.26 -0.052,0.332 -0.764,0.548 -1.016,0.784 -0.339,0.317 -0.697,0.982 -1.009,1.519 v 0 c -0.225,0.387 -0.427,0.707 -0.58,0.778 -0.931,0.436 -1.46,-0.166 -2.194,-0.335 -0.425,-0.098 -0.954,0.2 -1.414,-0.351 l -0.234,0.894 -1.141,0.075 c -0.09,0.597 0.83,1.021 0.94,1.408 0.097,0.345 -0.034,0.723 0.064,1.069 0.129,0.45 0.778,0.537 0.587,1.452 -0.095,0.457 -0.503,0.618 -0.689,0.941 -0.158,0.273 -0.102,0.712 -0.335,0.959 -0.227,0.241 -0.797,0.243 -0.868,0.35 -0.087,0.132 0.007,0.645 -0.274,1.102 -0.11,0.178 -1.623,1.623 -1.918,1.884 -2.404,2.128 -4.287,3.821 -7.42,4.812 -2.445,0.773 -5.895,0.836 -8.179,-0.502 -0.3,-0.177 -2.091,-1.613 -2.228,-1.822 -0.787,-1.21 -0.244,-4.565 0.806,-5.495 0.295,-0.261 0.841,-0.459 1.054,-0.728 0.296,-0.375 0.25,-0.921 0.446,-1.335 0.615,-1.299 2.247,-2.152 3.043,-3.113 1.404,-1.694 2.933,-3.315 4.351,-5.042 1.004,-1.222 1.727,-2.99 3.289,-3.677 0.563,-0.248 1.349,-0.116 1.717,-0.349 0.127,-0.081 0.177,-0.227 0.243,-0.389 v 0 c 0.067,-0.162 0.151,-0.34 0.347,-0.484 0.876,-1.27 0.75,-1.569 1.214,-2.696 0.518,-1.258 -1.236,-0.518 0.751,-1.776 1.987,-1.258 1.247,-0.888 3.319,-1.628 2.073,-0.74 2.961,-1.317 3.405,-2.25 0.444,-0.933 0.37,-0.69 1.036,-2.18 0.666,-1.491 -0.296,0.433 1.11,-2.823 1.406,-3.256 1.628,-4.219 3.331,-6.809 1.702,-2.59 1.11,-2.738 3.478,-4.07 2.368,-1.333 1.924,0 3.404,-2.147 1.481,-2.146 2.899,-2.886 2.899,-2.886 0,0 2.134,0.74 3.466,0.296 1.332,-0.444 -0.814,-0.37 1.85,-0.74 0.404,-0.056 0.751,-0.101 1.052,-0.136 0.384,-0.364 0.511,-0.995 1.272,-0.878 -0.128,0.354 -0.092,0.604 0.039,0.76 0.581,-0.027 0.805,0.014 1.153,0.021 0.226,-0.126 0.432,-0.315 0.569,-0.561 0.189,-0.342 0.196,-0.954 0.384,-1.155 0.129,-0.138 0.66,-0.257 0.923,-0.455 1.064,-0.803 3.357,-2.676 4.551,-3.068 0.295,-0.095 0.556,0.136 0.849,0.062 0.269,-0.068 1.024,-0.962 1.697,-1.089 0.524,-0.097 0.664,0.332 1.052,0.279 0.758,-0.104 2.253,-1.109 2.828,-1.241 0.754,-0.171 1.799,0.211 2.197,0.106 0.297,-0.08 0.932,-0.979 1.622,-1.15 0.414,-0.104 1.885,0.192 1.087,-0.77 0.673,0.154 1.253,0.386 1.958,0.222 1.388,-0.322 1.861,-0.381 3.205,-0.317 1.053,0.047 1.401,0.003 2.276,-0.645 0.235,-0.173 0.224,-0.491 0.622,-0.682 0.857,-0.41 1.241,0.389 2.047,0.285 0.436,-0.057 0.689,-0.414 1.069,-0.563 0.629,-0.245 2.117,-0.049 2.831,0.081 1.23,0.22 2.21,0.898 3.115,1.096 1.411,0.308 2.213,0.444 3.596,0.939 1.145,0.41 0.73,0.609 1.08,1.356 0.204,0.436 0.645,0.489 0.554,0.98 0.893,-0.241 0.684,-0.167 1.213,0.483 l 0.407,-0.969 c 0.964,0.07 3.395,1.668 1.855,2.427 l -0.085,0.244 c 0.373,0.748 1.077,1.515 1.954,1.54 l -0.002,-0.367 c 0.253,-0.669 0.489,1.04 1.14,0.283 0.206,-0.241 0.089,-0.615 0.643,-0.32 0.454,0.241 0.58,0.983 0.961,1.307 0.324,0.275 0.708,0.264 1.053,0.567 2.507,2.202 2.504,4.988 3.626,7.711 0.634,1.531 1.749,2.859 2.103,4.707 0.171,0.896 -0.132,2.107 0.233,3.323 0.167,0.556 0.798,0.951 0.904,1.539 0.147,0.825 -0.135,1.539 0.225,2.678 0.123,0.393 0.602,0.375 0.627,0.544 0.029,0.207 -0.201,0.614 -0.19,0.947 0.01,0.29 0.138,1.362 0.207,1.589 0.111,0.358 0.564,0.349 0.677,0.643 0.127,0.334 -0.089,0.632 -0.032,0.967 0.246,1.453 1.654,3.227 1.553,5.026 -0.06,1.068 0.06,0.585 0.17,1.366 0.018,0.128 0.02,0.29 0.007,0.466 C 1.922,0.854 0.086,-0.544 0,0"
         style="fill:#c4161d;fill-opacity:1;fill-rule:nonzero;stroke:none"
         transform="matrix(1.3333333,0,0,-1.3333333,166.21803,147.63896)"
         clip-path="url(#clipPath13)" /></g></g></svg>
